<svg width="397" height="391" viewBox="0 0 397 391" fill="none" xmlns="http://www.w3.org/2000/svg">
<path d="M38.0003 61.0682C38.0003 62.3833 38.6207 63.6363 39.9357 64.9514L49.2404 74.2561L45.3573 78.1268L50.3942 83.5607L54.6619 79.293L59.7113 84.7269L55.8281 88.5977L61.2621 94.0316L65.1328 90.1485L74.4375 99.0686C77.1048 101.736 79.5241 101.736 82.1914 99.0686L134.149 151.014C124.881 162.601 117.859 174.958 114.373 186.681C107.922 208.492 112.574 227.87 127.549 242.907C134.186 249.544 142.287 253.613 151.977 255.313C167.683 258.017 179.94 271.875 181.057 288.264C182.26 306.141 189.443 321.848 201.217 333.621C232.282 364.686 288.644 359.054 326.83 320.83C348.541 299.119 359.781 271.453 359.781 245.996C359.781 226.617 353.045 208.641 339.621 195.217C327.835 183.431 312.141 176.26 294.264 175.057C277.888 173.94 264.017 162.067 261.3 146.361C259.613 136.672 255.544 128.186 248.894 121.549C233.92 106.574 214.492 101.922 192.694 108.373C185.411 110.507 178.005 114.328 170.586 118.832L188.811 137.069C192.533 135.121 196.13 133.471 199.666 132.404C212.556 128.583 223.064 130.618 231.451 139.004C234.416 142.007 236.054 145.58 236.885 150.244C241.537 177.091 265.084 198.021 292.713 199.869C304.487 200.639 314.672 205.204 322.178 212.66C343.541 234.086 337.934 274.443 309.375 302.99C280.84 331.537 240.024 337.541 218.66 316.178C211.192 308.66 206.639 298.487 205.869 286.713C204.021 259.084 183.091 235.587 156.244 230.885C151.592 230.054 148.007 228.453 145.004 225.451C139.235 219.682 136.469 213.094 136.469 205.291C136.469 201.755 137.201 197.686 138.404 193.666C140.737 185.85 145.339 177.141 151.592 168.854L193.078 210.328C192.032 214.875 192.025 219.6 193.056 224.151C194.088 228.702 196.133 232.962 199.038 236.614C201.944 240.265 205.635 243.215 209.838 245.243C214.04 247.271 218.646 248.326 223.313 248.328C240.408 248.328 254.316 234.421 254.316 217.313C254.316 200.204 240.408 186.297 223.3 186.297C221.414 186.297 219.665 186.731 217.866 187.078L104.659 74.2561C107.326 71.5887 107.326 68.7725 104.659 66.1052L95.3544 56.8005L99.2376 52.9297L94.2007 47.8928L90.3175 51.7635L84.896 46.342L90.3175 43.625L84.896 38.5881L81.0128 42.4588L71.7081 33.1542C69.0408 30.4868 66.237 30.4868 63.5696 33.1542L39.9233 56.8129C38.7586 57.9323 38.0662 59.4547 37.9879 61.0682L38.0003 61.0682ZM53.0988 62.2344L58.5327 56.8005L82.1914 80.8438L77.1545 85.8807L53.0988 62.2344ZM62.4034 51.7635L67.8374 46.342L91.4837 70.3729L86.0497 75.4222L62.4034 51.7635ZM244.254 278.178L261.697 295.621L301.621 255.697L284.178 238.254L244.254 278.178Z" fill="#34363B"/>
</svg>
