<svg width="323" height="348" viewBox="0 0 323 348" fill="none" xmlns="http://www.w3.org/2000/svg">
<path d="M247.233 106.024V215.719C238.963 210.945 229.35 209.033 219.883 210.279C210.417 211.525 201.626 215.861 194.874 222.612C188.122 229.364 183.787 238.155 182.541 247.622C181.295 257.088 183.207 266.702 187.981 274.971C192.756 283.24 200.125 289.703 208.947 293.356C217.768 297.01 227.549 297.651 236.772 295.18C245.995 292.708 254.145 287.262 259.957 279.687C265.77 272.112 268.92 262.83 268.92 253.282V34.8019C268.923 32.018 268.257 29.2742 266.976 26.8022C265.696 24.3302 263.84 22.2026 261.564 20.599C259.288 18.9954 256.66 17.963 253.902 17.5889C251.143 17.2148 248.335 17.5099 245.714 18.4495L106.914 68.0271C103.55 69.2335 100.64 71.4498 98.5821 74.3729C96.5247 77.296 95.4203 80.7832 95.4201 84.3578V237.385C87.1517 232.611 77.5394 230.699 68.0735 231.944C58.6077 233.19 49.8173 237.524 43.0654 244.274C36.3136 251.025 31.9775 259.814 30.7297 269.279C29.4818 278.745 31.3918 288.358 36.1636 296.627C40.9353 304.897 48.3022 311.361 57.1218 315.017C65.9414 318.673 75.7209 319.317 84.9439 316.85C94.1669 314.382 102.318 308.94 108.133 301.368C113.949 293.796 117.103 284.517 117.108 274.969V152.5L247.233 106.045V106.024ZM247.233 82.9915L117.108 129.446V87.3941L247.233 40.9177V82.9698V82.9915ZM225.545 231.594C231.297 231.594 236.813 233.879 240.88 237.946C244.948 242.014 247.233 247.53 247.233 253.282C247.233 259.034 244.948 264.55 240.88 268.617C236.813 272.684 231.297 274.969 225.545 274.969C219.793 274.969 214.277 272.684 210.21 268.617C206.143 264.55 203.858 259.034 203.858 253.282C203.858 247.53 206.143 242.014 210.21 237.946C214.277 233.879 219.793 231.594 225.545 231.594ZM73.7326 253.282C79.4844 253.282 85.0007 255.567 89.0679 259.634C93.1351 263.701 95.4201 269.217 95.4201 274.969C95.4201 280.721 93.1351 286.237 89.0679 290.305C85.0007 294.372 79.4844 296.657 73.7326 296.657C67.9807 296.657 62.4644 294.372 58.3972 290.305C54.33 286.237 52.0451 280.721 52.0451 274.969C52.0451 269.217 54.33 263.701 58.3972 259.634C62.4644 255.567 67.9807 253.282 73.7326 253.282Z" fill="#34363C"/>
</svg>
