<svg width="360" height="423" viewBox="0 0 360 423" fill="none" xmlns="http://www.w3.org/2000/svg">
<g clip-path="url(#clip0_32_132)">
<path d="M264.904 126.989L292.26 233.218C283.062 230.657 273.275 231.203 264.419 234.77C255.562 238.338 248.13 244.729 243.275 252.951C238.421 261.173 236.415 270.768 237.569 280.246C238.723 289.724 242.973 298.557 249.658 305.374C256.344 312.191 265.092 316.612 274.546 317.95C284 319.289 293.632 317.47 301.947 312.777C310.262 308.083 316.796 300.777 320.536 291.991C324.276 283.206 325.012 273.432 322.63 264.185L268.144 52.6086C267.453 49.9119 266.123 47.4211 264.266 45.3465C262.41 43.2719 260.082 41.6744 257.478 40.689C254.875 39.7036 252.072 39.3592 249.307 39.6849C246.542 40.0106 243.897 40.9968 241.593 42.5602L119.543 125.187C116.585 127.194 114.32 130.066 113.057 133.41C111.793 136.754 111.593 140.406 112.485 143.868L150.648 292.06C141.45 289.499 131.665 290.044 122.809 293.611C113.953 297.178 106.521 303.567 101.666 311.788C96.8106 320.009 94.8035 329.602 95.9557 339.08C97.1079 348.557 101.355 357.39 108.038 364.208C114.721 371.026 123.468 375.449 132.92 376.79C142.373 378.131 152.004 376.316 160.321 371.626C168.637 366.936 175.173 359.634 178.916 350.851C182.659 342.068 183.4 332.295 181.023 323.048L150.481 204.448L264.909 127.01L264.904 126.989ZM259.16 104.684L144.731 182.123L134.244 141.4L248.667 63.9399L259.154 104.663L259.16 104.684ZM275.217 254C280.787 252.566 286.699 253.403 291.652 256.327C296.605 259.252 300.194 264.024 301.628 269.594C303.063 275.164 302.226 281.076 299.301 286.029C296.377 290.982 291.605 294.57 286.035 296.005C280.464 297.439 274.553 296.602 269.6 293.678C264.647 290.753 261.058 285.981 259.624 280.411C258.189 274.841 259.026 268.929 261.951 263.976C264.875 259.023 269.647 255.435 275.217 254V254ZM133.61 312.863C139.18 311.429 145.092 312.266 150.045 315.19C154.998 318.114 158.587 322.886 160.021 328.457C161.456 334.027 160.619 339.939 157.694 344.892C154.77 349.845 149.998 353.433 144.427 354.867C138.857 356.302 132.945 355.465 127.992 352.541C123.039 349.616 119.451 344.844 118.017 339.274C116.582 333.704 117.419 327.792 120.344 322.839C123.268 317.886 128.04 314.297 133.61 312.863V312.863Z" fill="#34363C"/>
</g>
<defs>
<clipPath id="clip0_32_132">
<rect width="347" height="347" fill="white" transform="translate(0 86.5382) rotate(-14.4414)"/>
</clipPath>
</defs>
</svg>
