<svg width="334" height="334" viewBox="0 0 334 334" fill="none" xmlns="http://www.w3.org/2000/svg">
<path d="M191.021 56.7159C189.913 55.9142 188.626 55.393 187.272 55.1968C185.918 55.0007 184.537 55.1354 183.246 55.5895C181.955 56.0435 180.794 56.8035 179.861 57.8043C178.928 58.8051 178.251 60.0169 177.888 61.3363L141.649 193.447C135.758 185.332 127.334 179.407 117.705 176.606C108.077 173.805 97.7895 174.286 88.4644 177.974C79.1392 181.662 71.3059 188.348 66.1981 196.977C61.0903 205.607 58.9984 215.69 60.2517 225.64C61.505 235.589 66.0324 244.839 73.1208 251.932C80.2092 259.026 89.4558 263.559 99.4043 264.82C109.353 266.08 119.438 263.995 128.071 258.893C136.704 253.791 143.395 245.963 147.09 236.64C147.445 236.022 147.72 235.362 147.91 234.675L176.054 132.076L244.341 181.497C245.449 182.299 246.736 182.82 248.09 183.016C249.444 183.212 250.826 183.078 252.116 182.624C253.407 182.17 254.569 181.41 255.502 180.409C256.435 179.408 257.111 178.196 257.474 176.877L267.237 141.286C269.216 134.078 268.948 126.437 266.468 119.384C263.988 112.332 259.414 106.205 253.358 101.823L191.021 56.7159V56.7159ZM132.316 227.469C130.335 234.692 125.565 240.832 119.057 244.539C112.548 248.245 104.834 249.214 97.6106 247.233C90.3874 245.251 84.2473 240.482 80.5408 233.973C76.8343 227.465 75.8652 219.75 77.8465 212.527C79.8279 205.304 84.5975 199.164 91.1061 195.457C97.6147 191.751 105.329 190.782 112.552 192.763C119.775 194.745 125.915 199.514 129.622 206.023C133.328 212.531 134.298 220.246 132.316 227.469ZM244.366 160.607L180.841 114.624L190.996 77.606L243.418 115.554C246.68 117.913 249.144 121.212 250.48 125.01C251.816 128.807 251.961 132.922 250.896 136.804L244.366 160.607Z" fill="#34363B"/>
</svg>
